<svg xmlns="http://www.w3.org/2000/svg" width="107" height="29" viewBox="0 0 107 29">
  <defs>
    <rect id="rect-1" width="107" height="29" x="0" y="0"/>
  </defs>
  <g>
    <path fill="rgb(72,183,73)" fill-rule="evenodd" d="M25.97653401 5s.24948695 1.40863528-.50874683 5.02372973L24 17h4.99988057l1.47018431-6.97627027C31.16044117 6.74334621 30.97825854 5 30.97825854 5H25.976534z"/>
    <path fill="rgb(72,183,73)" fill-rule="evenodd" d="M64.42269909 5l-1.0568021 5.25729415h4.12295903c1.75960242 0 2.80581233.92114007 1.83765005 5.74099263-.86205467 4.29503686-2.22900317 5.7415637-4.09415573 5.7415637h-4.17406163L60 27h6.38169462c3.59576586 0 6.54169227-3.41710795 8.06417856-11.00171322C76.10271288 7.75923234 73.79621956 5 70.80383623 5h-6.38113714z"/>
    <path fill="rgb(72,183,73)" fill-rule="evenodd" d="M34.6014896 1.00113812c-.02449995.42224298.00308519 1.09032013-.09164799 1.58312662-.16224417 1.00458167-.40270674 2.49134736-.40270674 2.49134736-.405066 3.13324774.25861068 5.2400998 3.3731907 5.2400998h1.49322714c2.67231038-.21757083 1.48905309 1.72501241.60288048 4.10520327L35.10056285 27h5.12793222l4.99163986-14.151589c1.86181543-5.29700586.04228512-7.68535325-1.82606363-7.68535325-1.45765684 0-2.03912254-.0432486-3.23381315-.0432486-1.26728308 0-1.07346118-1.21399598-.8698393-2.37753524.11469611-.67016372.08057765-1.35777862.12122943-1.74227391l-4.81015867.00113812z"/>
    <path fill="rgb(72,183,73)" fill-rule="evenodd" d="M5.19290117 19.42323876c-.99637927 4.34500186-2.93809138 3.300759-4.26393435 3.07873231C.54923605 24.13243236 0 26.5979481 0 26.5979481s2.37268414.44329818 4.31420142.3989306c2.8373624-.06117062 4.78414018-1.31856665 6.19337194-7.9136655l1.88404136-8.86841802h1.90021255c2.33956242 0 2.31832555.9985537 1.6810247 3.99874595L13.296617 26.819786h5.28700581l2.88353797-13.70958156c1.6601775-7.40693112-.77271024-8.09415658-4.34654381-8.09415658L8.212433 5 5.19290117 19.42323876z"/>
    <path fill="rgb(72,183,73)" fill-rule="evenodd" d="M48.59958938 1.00113812c-.02250621.42224298.00163352 1.09032013-.09202138 1.58312662-.16298858 1.00458167-.40039287 2.49134736-.40039287 2.49134736-.4051119 3.13324774.258277 5.2400998 3.37321005 5.2400998h1.49339641c2.67097977-.21757083 1.48922187 1.72501241.60240431 4.10520327L49.0987192 27h5.12815048l4.99111666-14.151589c1.865475-5.29700586.04501243-7.68535325-1.8248186-7.68535325-1.4609076 0-2.0404427-.0432486-3.23417971-.0432486-1.26742673 0-1.07394587-1.21399598-.8697564-2.37753524.11561662-.67016372.08004228-1.35777862.12106167-1.74227391l-4.81070392.00113812z"/>
    <path fill="rgb(0,181,214)" fill-rule="evenodd" d="M91.69207531.77341333l-6.63351281 5.5487016c-.28558345.2499297-.64435001.37067592-1.01741456.37067592l-4.42748413.00224993c-.32076402 0-.66918336.27149152-.73465308.59098153l-.86822637 4.1314334c-.06377654.32155245.16273366.57073216.48349768.57073216h7.9022709c.85468091 0 1.29171013-.4001125 1.3814488-.47811006l4.77439842-3.97637574c.14015788-.12974594.31624887-.1889941.52356966-.1889941.22914403 0 .43533603.09505954.5807616.25180464l3.1519533 3.75082029C97.34880996 11.98818787 98.04395545 12 98.33160834 12h7.07355214c.32076402 0 .63437904-.26099184.69909624-.5825443l.88440567-4.1505578c.06302401-.3163026-.14297986-.57485703-.4620507-.57485703l-5.96226001-.00731227c-.24946222 0-.4584762-.10724665-.58038534-.27055404L95.25678889.79460016C94.86566373.303928 94.28979355 0 93.56454704 0c-.84169984 0-1.36094248.33861442-1.87247173.77341333"/>
    <path fill="rgb(72,183,73)" fill-rule="evenodd" d="M77.59230572 17.0011253c-.3160604 0-.63494275.2571308-.69815483.57784099l-.88195899 4.15066502c-.06565778.31977244.140534.57896629.45828757.57896629l5.96545172.0045012c.24663998 0 .45678251.10596564.57925591.27250988l4.72830106 5.62049294C88.13517728 28.6957942 88.70766048 29 89.43102488 29c.84132266 0 1.36376296-.33740212 1.8792424-.7706422l6.62804975-5.54866137c.28784072-.25319225.64623062-.37566228 1.01910663-.37566228h4.42804368c.3209518 0 .67238086-.27644843.73709798-.59059438l.86653224-4.13547348c.064529-.3207102-.16517918-.5692137-.48312088-.5692137h-7.90038095c-.859007 0-1.29490695.39948111-1.38408113.47618899l-4.77646263 3.97605614c-.14222718.13334792-.31455534.19261366-.520559.19261366-.22970817 0-.43552368-.09415-.57793899-.25169185l-3.15797006-3.75343451C85.64657798 17.00975259 84.9565128 17 84.66547385 17l-7.07316813.0011253z"/>
  </g>
</svg>
